<?xml version="1.0" standalone="no"?>
<!DOCTYPE svg PUBLIC "-//W3C//DTD SVG 20010904//EN"
 "http://www.w3.org/TR/2001/REC-SVG-20010904/DTD/svg10.dtd">
<svg version="1.0" xmlns="http://www.w3.org/2000/svg"
 width="509.000000pt" height="509.000000pt" viewBox="0 0 509.000000 509.000000"
 preserveAspectRatio="xMidYMid meet">
<metadata>
Created by potrace 1.11, written by Peter Selinger 2001-2013
</metadata>
<g transform="translate(0.000000,509.000000) scale(0.100000,-0.100000)"
fill="#000000" stroke="none">
<path d="M2118 4605 c-2 -2 -26 -6 -53 -8 -248 -24 -519 -128 -739 -285 -103
-73 -267 -235 -342 -338 -171 -230 -280 -500 -314 -777 -12 -94 -9 -410 4
-467 8 -34 15 -69 21 -105 6 -41 48 -178 75 -245 28 -71 118 -250 136 -271 19
-22 11 -39 -39 -80 -79 -65 -333 -324 -400 -409 -37 -47 -73 -92 -80 -100 -25
-29 -117 -174 -117 -184 0 -5 -7 -17 -15 -26 -8 -9 -16 -25 -18 -36 -2 -10
-11 -37 -21 -59 -10 -22 -19 -49 -21 -60 -2 -11 -9 -42 -15 -70 -12 -55 -10
-204 2 -211 4 -3 8 -14 8 -25 0 -51 113 -170 212 -224 53 -29 134 -55 221 -70
15 -3 42 -8 60 -11 68 -14 479 -6 505 10 4 2 36 7 72 10 36 3 83 11 105 16 62
16 70 18 111 25 45 8 69 13 69 15 0 1 7 3 15 5 88 22 188 51 249 72 42 14 82
27 91 29 19 5 135 47 175 64 17 6 35 13 40 14 31 7 55 19 55 27 0 6 4 8 8 5 4
-2 21 2 37 9 17 8 71 30 120 50 105 43 147 61 275 124 52 25 97 46 100 46 3 0
10 3 15 7 19 12 111 61 170 91 33 17 72 38 86 48 14 10 28 16 31 13 3 -2 11 2
18 11 7 8 18 15 25 15 8 0 15 4 17 9 2 5 17 17 35 27 61 36 208 127 213 133 3
4 32 24 65 46 33 22 69 48 80 58 11 10 36 28 55 40 19 11 37 24 40 27 3 3 23
19 45 36 22 16 53 41 70 55 16 15 53 44 80 65 105 78 517 494 490 494 -3 0 3
8 13 18 84 90 186 263 228 387 38 113 41 299 7 375 -20 44 -37 66 -84 105
-100 84 -135 94 -99 27 19 -36 29 -62 37 -92 2 -8 4 -58 5 -111 0 -75 -4 -111
-22 -165 -22 -67 -95 -218 -119 -245 -6 -8 -29 -37 -49 -66 -48 -64 -97 -126
-139 -172 -18 -20 -33 -39 -33 -43 0 -4 -9 -10 -20 -13 -11 -3 -20 -11 -20
-16 0 -13 -37 -48 -44 -42 -3 4 -6 1 -6 -6 0 -6 -12 -23 -27 -38 -207 -192
-254 -233 -264 -233 -4 0 -20 -11 -34 -25 -14 -14 -25 -23 -25 -20 0 3 -10 -3
-22 -14 -12 -12 -40 -33 -62 -48 -23 -16 -52 -38 -66 -50 -14 -13 -30 -23 -37
-23 -7 0 -13 -4 -13 -8 0 -8 -55 -43 -65 -42 -5 0 -22 -12 -54 -41 -10 -9 -23
-18 -27 -20 -31 -13 -170 -94 -172 -101 -2 -4 -9 -8 -16 -8 -8 0 -25 -9 -39
-20 -14 -11 -32 -20 -40 -20 -9 0 -17 -3 -19 -7 -10 -24 -503 -236 -598 -258
-8 -2 -35 -10 -60 -18 -25 -9 -65 -21 -90 -27 -25 -6 -52 -14 -60 -17 -8 -4
-18 -7 -22 -8 -5 -2 -9 -3 -10 -5 -5 -3 -41 -10 -78 -15 -19 -2 -60 -9 -90
-15 -162 -31 -384 -30 -550 3 -29 6 -131 47 -158 64 -30 19 -137 121 -137 131
-1 4 -9 21 -18 39 -28 53 -37 153 -23 254 9 64 79 239 96 239 3 0 28 -21 55
-47 238 -221 552 -367 882 -409 65 -9 297 -9 358 -1 130 17 225 39 340 79 268
93 523 277 716 518 174 217 308 545 337 823 9 90 9 290 -1 380 -38 365 -225
746 -487 993 -89 84 -116 106 -215 172 -196 133 -401 213 -642 253 -62 10
-338 21 -345 14z m277 -158 c17 -3 49 -8 72 -12 l43 -7 -17 -31 c-20 -41 -81
-134 -108 -168 l-21 -26 -40 23 c-109 63 -291 144 -375 165 -27 7 -49 16 -49
19 0 8 106 29 195 38 75 8 251 7 300 -1z m470 -143 c83 -42 223 -131 253 -161
10 -10 8 -22 -14 -65 -50 -99 -126 -211 -218 -323 l-24 -30 -24 30 c-49 63
-130 157 -171 197 -75 74 -141 134 -161 145 -15 8 -16 14 -7 31 6 11 17 26 23
34 21 22 84 121 112 176 l26 51 57 -20 c32 -11 98 -40 148 -65z m-891 -81 c95
-33 276 -124 275 -137 -1 -27 -280 -229 -307 -224 -11 3 -202 398 -202 419 0
9 149 -28 234 -58z m-317 -131 c111 -239 135 -294 127 -302 -11 -9 -102 -39
-141 -46 -15 -2 -35 -7 -43 -10 -8 -3 -50 -8 -92 -11 l-77 -5 15 63 c25 108
60 220 99 314 41 101 57 125 64 104 2 -8 24 -56 48 -107z m-257 53 c-29 -68
-97 -291 -111 -363 -8 -44 -16 -62 -25 -58 -7 3 -30 8 -51 11 -44 8 -129 33
-156 47 -16 8 -14 14 20 62 58 82 111 143 188 218 57 55 142 126 152 128 1 0
-6 -20 -17 -45z m1893 -171 c86 -97 185 -247 231 -352 l19 -43 -51 -102 c-59
-120 -171 -291 -236 -362 -25 -27 -45 -53 -46 -57 0 -13 -20 -9 -20 5 0 42
-132 344 -204 466 -41 71 -40 66 -23 83 75 80 208 266 257 361 14 26 27 47 28
47 2 0 22 -21 45 -46z m-758 -109 c97 -96 142 -146 189 -209 l30 -39 -51 -47
c-62 -57 -198 -160 -211 -160 -6 0 -12 -4 -14 -8 -5 -13 -199 -125 -251 -145
-19 -7 -18 -8 -158 301 -65 143 -73 172 -47 172 27 0 227 143 317 227 l45 42
30 -22 c17 -12 72 -62 121 -112z m-1482 -244 c73 -26 179 -48 200 -43 4 1 5
-16 2 -39 -8 -55 -9 -314 0 -407 l6 -73 -68 6 c-96 7 -138 14 -263 39 -14 3
-46 11 -71 17 l-45 12 8 61 c11 80 41 207 69 287 28 83 66 169 74 169 4 0 43
-13 88 -29z m894 -162 c46 -101 93 -203 103 -227 l19 -43 -27 -10 c-46 -18
-269 -78 -314 -84 -24 -4 -65 -11 -91 -16 -26 -5 -88 -12 -137 -15 l-90 -6 -1
48 c0 27 -2 58 -5 69 -5 23 -5 282 0 338 4 47 6 49 58 52 113 7 248 34 343 69
22 8 44 13 49 12 5 -1 47 -85 93 -187z m901 9 c17 -22 109 -211 141 -290 38
-97 81 -228 81 -248 -1 -8 -24 -33 -52 -55 -28 -22 -56 -45 -62 -51 -46 -45
-270 -184 -377 -235 l-56 -27 -122 267 c-67 146 -121 271 -121 278 0 6 12 16
28 22 48 18 185 95 265 150 85 57 240 179 245 193 5 12 18 10 30 -4z m787
-177 c22 -105 29 -180 29 -311 l0 -115 -51 -102 c-78 -156 -203 -337 -282
-407 l-21 -19 -1 49 c-1 27 -2 60 -4 74 -1 14 -5 57 -9 96 -6 79 -31 233 -46
284 -9 30 -6 36 44 89 84 89 150 173 220 280 36 55 66 102 66 106 0 9 32 56
36 52 2 -2 10 -36 19 -76z m-1476 -294 c12 -28 29 -66 37 -84 l14 -32 -51 -26
c-28 -14 -57 -25 -64 -25 -7 0 -15 -3 -17 -7 -1 -5 -52 -33 -113 -62 -141 -70
-289 -152 -293 -163 -2 -4 -9 -8 -16 -8 -6 0 -28 -12 -49 -26 -21 -14 -44 -24
-51 -21 -21 8 -123 344 -108 359 4 4 48 10 97 13 50 4 93 9 96 10 3 2 28 7 55
11 58 7 80 11 102 18 9 3 30 7 46 10 40 7 238 66 256 77 27 15 35 9 59 -44z
m-1308 -31 c188 -38 280 -52 413 -60 16 -1 24 -20 47 -113 16 -61 44 -158 64
-215 20 -57 39 -110 41 -118 3 -10 -12 -26 -43 -45 -26 -16 -57 -38 -68 -48
-27 -25 -56 -30 -117 -23 -92 11 -231 37 -248 46 -9 5 -24 28 -33 52 -32 90
-66 210 -72 258 -2 18 -16 108 -21 131 -3 18 -6 114 -5 137 1 7 5 11 9 8 5 -3
19 -7 33 -10z m1379 -116 c0 -9 35 -89 120 -275 37 -81 39 -77 -63 -110 -81
-26 -107 -34 -167 -49 -8 -2 -34 -9 -57 -15 -65 -18 -240 -48 -318 -56 -38 -4
-72 -9 -75 -10 -9 -6 -24 8 -44 39 l-18 28 64 61 c68 65 288 233 301 229 4 -1
7 2 7 7 0 8 58 48 85 60 6 2 23 15 38 27 16 13 35 24 42 24 7 0 15 3 17 8 4 9
50 41 61 41 4 1 7 -4 7 -9z m891 -117 c0 -10 2 -27 4 -38 3 -11 7 -45 11 -75
3 -30 8 -64 11 -75 2 -11 6 -94 8 -184 l4 -163 -27 -25 c-34 -31 -197 -140
-274 -182 l-58 -31 -50 106 c-27 58 -50 107 -50 109 0 3 -83 183 -102 222 -6
13 -9 25 -7 26 2 2 42 23 88 46 116 59 242 138 342 215 46 36 87 66 92 66 4 0
7 -8 8 -17z m-566 -603 c57 -124 100 -228 96 -233 -21 -22 -303 -105 -416
-121 -22 -3 -51 -8 -65 -11 -46 -10 -252 177 -374 339 -31 41 -56 77 -56 80 0
2 21 8 48 11 26 4 70 10 97 15 28 5 66 12 85 15 72 11 278 66 370 99 52 19 99
33 104 32 5 -1 55 -103 111 -226z m899 85 c-32 -52 -82 -125 -112 -162 l-53
-67 6 61 6 61 99 101 c55 55 100 106 101 113 0 10 2 10 6 0 2 -6 -21 -55 -53
-107z m-2384 -12 c0 -2 -6 -10 -13 -18 -11 -11 -15 -10 -25 6 -16 26 -16 27
13 21 14 -2 25 -6 25 -9z m533 -87 c75 -112 130 -180 221 -273 49 -51 83 -93
75 -94 -29 -2 -116 2 -169 7 -48 5 -84 10 -193 28 -13 2 -61 14 -107 27 -71
19 -92 30 -141 73 -71 64 -87 89 -68 109 8 8 32 38 54 66 22 29 55 68 72 86
32 33 33 33 124 32 l91 -1 41 -60z m1513 -227 c-17 -81 -20 -85 -133 -158
l-61 -40 -17 37 c-9 20 -23 49 -31 64 -14 27 -14 27 33 54 128 72 189 109 203
122 21 22 23 3 6 -79z m-362 -195 c14 -31 26 -60 26 -64 0 -8 -117 -52 -181
-68 -32 -8 -50 -5 -134 29 -54 21 -103 43 -109 50 -8 8 -7 10 4 7 8 -3 54 8
102 23 49 15 88 26 88 24 0 -2 37 12 83 30 45 18 85 30 89 28 4 -2 18 -29 32
-59z m-523 -165 c23 -16 21 -17 -46 -13 -109 6 -222 24 -320 51 -49 14 -91 26
-93 28 -2 2 38 2 90 1 51 -1 125 1 163 4 65 5 74 3 126 -25 31 -16 67 -37 80
-46z"/>
<path d="M4296 4377 c-15 -45 -43 -122 -61 -172 -19 -49 -46 -127 -61 -172
-21 -63 -32 -82 -48 -85 -12 -2 -121 -3 -244 -2 -122 1 -220 -1 -217 -6 3 -4
51 -48 107 -96 57 -49 105 -91 108 -94 3 -3 37 -33 76 -67 l71 -62 -68 -252
c-38 -139 -67 -254 -65 -256 1 -2 20 10 42 25 21 16 77 55 124 87 47 32 127
87 178 122 l93 64 62 -44 c206 -145 370 -257 374 -254 1 2 -10 44 -27 93 -16
49 -47 150 -70 224 -23 74 -46 148 -53 164 -8 23 -8 31 5 40 21 15 86 68 168
136 36 30 83 69 104 85 21 17 54 44 74 61 l35 31 -238 -1 c-228 -1 -238 0
-250 19 -7 11 -50 124 -95 250 -46 127 -86 233 -90 237 -3 5 -18 -29 -34 -75z"/>
</g>
</svg>
